<?xml version="1.0" standalone="no"?>
<!DOCTYPE svg PUBLIC "-//W3C//DTD SVG 20010904//EN"
 "http://www.w3.org/TR/2001/REC-SVG-20010904/DTD/svg10.dtd">
<svg version="1.0" xmlns="http://www.w3.org/2000/svg"
 width="512.000000pt" height="512.000000pt" viewBox="0 0 512.000000 512.000000"
 preserveAspectRatio="xMidYMid meet">
<metadata>
Created by potrace 1.11, written by Peter Selinger 2001-2013
</metadata>
<g transform="translate(0.000000,512.000000) scale(0.100000,-0.100000)"
fill="#000000" stroke="none">
<path d="M2567 4765 c-71 -40 -134 -78 -140 -84 -9 -6 -50 -3 -126 10 -85 14
-117 16 -127 8 -18 -15 -18 -43 2 -80 8 -17 16 -49 17 -71 2 -39 -1 -44 -53
-85 -247 -197 -448 -423 -377 -423 22 0 271 30 300 36 40 8 35 -8 -28 -92 -65
-85 -81 -121 -91 -192 -5 -39 -2 -64 10 -97 l17 -44 -70 -103 c-75 -108 -137
-186 -143 -178 -5 6 -47 102 -105 240 -57 135 -154 260 -267 344 -47 36 -265
146 -287 146 -6 0 -9 -10 -7 -22 4 -23 4 -23 -146 -24 -129 -1 -167 -5 -261
-28 -60 -15 -144 -44 -185 -63 -141 -68 -296 -255 -303 -367 -3 -47 16 -58 32
-19 10 25 11 25 6 3 -3 -14 -8 -70 -11 -125 -5 -80 -3 -113 11 -160 22 -77 76
-181 123 -235 37 -44 130 -110 155 -110 7 0 24 -23 37 -51 20 -42 22 -54 12
-70 -14 -22 -8 -39 13 -39 36 0 126 156 191 332 16 43 32 78 35 78 4 0 19 -18
34 -40 16 -22 33 -39 39 -37 16 6 11 164 -8 215 -8 23 -13 42 -11 42 14 0 166
-102 205 -137 60 -54 120 -165 127 -236 6 -60 -37 -243 -83 -350 -98 -229
-116 -369 -70 -549 25 -99 52 -161 92 -215 13 -17 24 -41 24 -52 0 -11 19 -35
42 -54 36 -30 45 -34 63 -24 14 8 83 11 228 10 114 -2 207 -1 207 1 0 3 -18
37 -39 78 -22 40 -45 96 -51 123 -18 77 -22 84 -30 55 -5 -14 -8 73 -9 193 -1
254 12 328 115 671 4 11 2 16 -4 12 -6 -4 -21 -38 -33 -76 -13 -38 -24 -68
-26 -66 -12 12 26 114 74 198 30 54 53 101 50 104 -3 3 -20 -19 -37 -50 -18
-31 -34 -56 -36 -56 -2 0 8 30 21 67 22 58 79 160 149 266 10 15 14 27 10 27
-15 0 -39 -19 -39 -29 0 -5 -16 -34 -35 -65 l-35 -56 -90 0 c-139 0 -255 -39
-377 -126 -46 -32 -47 -33 -50 -11 -8 47 128 196 237 262 70 42 170 75 226 75
32 0 42 -5 51 -25 9 -21 7 -30 -16 -64 -16 -22 -26 -44 -25 -49 2 -5 28 4 57
20 29 17 51 33 48 35 -2 3 -26 -8 -53 -23 l-48 -28 50 59 c27 33 68 81 91 107
23 27 72 95 110 152 l67 105 27 -42 c30 -48 108 -122 144 -139 56 -25 45 -50
-74 -174 -70 -73 -96 -109 -134 -185 -59 -120 -95 -261 -103 -404 -6 -117 5
-289 16 -246 6 22 8 20 20 -20 15 -52 75 -173 140 -283 51 -86 162 -199 266
-268 33 -22 78 -60 100 -85 l40 -45 156 1 c154 2 157 1 187 -24 27 -23 38 -25
122 -25 84 0 95 2 122 25 29 24 34 25 178 25 144 0 149 -1 178 -25 26 -22 40
-25 103 -25 62 0 76 3 97 23 32 30 96 30 139 -1 26 -18 44 -22 108 -22 68 0
81 3 107 25 16 14 38 25 49 25 24 0 24 3 -1 83 l-20 66 70 103 c38 57 93 129
121 161 46 52 55 58 80 53 16 -3 42 -9 59 -12 59 -12 95 3 139 59 23 29 58 77
77 107 l36 55 -18 55 c-10 30 -21 60 -26 66 -6 8 3 19 27 34 40 25 41 32 19
103 -27 85 -37 90 -158 93 -57 1 -109 4 -114 8 -6 3 -41 8 -79 11 -37 3 -79 8
-93 11 -56 13 -244 21 -309 14 -38 -4 -84 -15 -102 -24 -18 -9 -33 -15 -34
-14 -8 9 -154 237 -164 257 -7 13 -21 51 -31 85 -9 33 -20 68 -24 77 -5 12 -1
18 14 22 21 5 21 6 -5 57 -14 29 -44 71 -66 95 l-41 44 36 15 c54 22 133 101
152 152 12 32 15 64 12 123 -4 71 -10 89 -61 191 -43 84 -57 123 -57 155 l0
42 68 6 c37 4 127 7 200 7 119 0 132 2 132 18 0 17 -256 276 -359 364 l-55 46
19 56 c33 98 13 105 -188 65 -86 -17 -100 -18 -120 -5 -32 21 -404 166 -425
166 -9 -1 -75 -34 -145 -75z m222 25 c21 -10 85 -38 142 -61 160 -63 219 -91
214 -99 -3 -4 23 1 58 11 34 10 97 25 140 33 91 16 96 13 72 -53 -22 -63 -19
-76 23 -106 40 -30 366 -355 356 -355 -3 0 -29 7 -57 15 -53 15 -149 30 -407
66 -186 26 -630 37 -805 20 -225 -22 -505 -87 -684 -160 l-53 -22 40 48 c58
69 214 218 310 297 79 65 82 69 82 110 0 23 -7 64 -16 90 -9 27 -13 51 -8 56
5 4 59 -2 119 -15 88 -18 113 -20 125 -10 8 7 58 37 110 68 52 31 104 63 115
71 28 21 78 20 124 -4z m331 -540 c204 -17 200 -16 200 -55 0 -29 7 -39 45
-65 40 -28 45 -35 45 -70 0 -28 16 -71 58 -151 l57 -113 0 -91 c0 -85 -2 -95
-30 -134 -16 -24 -31 -38 -33 -32 -2 6 -13 0 -24 -15 -19 -23 -105 -70 -114
-61 -2 1 15 22 36 45 22 23 41 48 41 55 2 19 -1 49 -7 77 -5 23 -7 23 -19 -14
-27 -78 -146 -167 -275 -206 -71 -22 -108 -46 -178 -118 -56 -56 -55 -57 15
-10 23 15 63 37 89 49 l48 20 60 -22 c109 -40 199 -149 246 -302 l29 -92 -42
47 c-52 57 -157 137 -225 172 -63 32 -164 49 -214 36 -21 -6 -54 -14 -74 -19
-72 -19 -184 -115 -215 -186 -23 -52 -49 -177 -49 -238 -1 -41 -2 -40 -39 48
-21 50 -55 122 -76 162 l-38 71 32 44 c55 77 165 150 190 125 19 -19 13 15
-13 70 -35 72 -87 111 -221 167 -115 48 -176 92 -212 151 -11 19 -12 18 -12
-9 -1 -16 8 -43 18 -60 13 -20 17 -37 11 -45 -6 -11 -19 -6 -59 23 -67 49
-117 112 -137 170 -16 46 -27 56 -40 35 -10 -17 -24 10 -24 47 0 51 31 125 79
192 70 96 91 134 91 168 0 28 5 33 48 49 26 10 52 23 57 30 12 14 167 42 305
54 136 12 436 12 570 1z m-1930 -224 c0 -2 -6 -6 -14 -9 -8 -3 -16 2 -19 14
-4 16 -2 17 14 8 10 -5 19 -11 19 -13z m-51 -12 c10 -3 -9 -19 -50 -44 -93
-56 -142 -101 -198 -185 -56 -84 -111 -217 -112 -272 l-1 -38 -18 50 c-10 28
-19 69 -19 93 -1 26 -5 41 -11 37 -31 -19 6 198 51 296 l32 68 80 3 c95 4 226
-1 246 -8z m335 -186 c42 -46 76 -86 76 -90 0 -5 -13 -8 -28 -8 -62 0 -191
-88 -271 -185 -59 -72 -104 -154 -122 -222 -8 -35 -18 -65 -20 -66 -3 -1 -24
14 -47 34 -38 33 -41 39 -48 101 -8 81 16 167 77 277 70 125 243 275 290 251
9 -6 51 -47 93 -92z m-1105 -168 c25 -33 66 -76 91 -95 66 -48 209 -115 264
-123 l46 -7 -44 -57 c-89 -113 -284 -166 -413 -113 -39 15 -43 21 -54 69 -15
67 2 223 31 292 28 64 24 83 -12 54 -16 -12 -28 -19 -28 -15 0 11 22 49 38 68
14 16 18 16 27 4 5 -9 30 -43 54 -77z m486 -425 l7 -50 -35 34 -36 34 22 27
c26 32 32 25 42 -45z m-129 -113 c-73 -189 -136 -300 -136 -238 0 6 -20 44
-44 84 -25 39 -48 81 -51 93 -5 16 -9 18 -15 9 -5 -7 -4 -24 1 -37 21 -55 1
-51 -66 14 l-40 38 86 6 c94 6 176 38 254 97 22 17 41 29 43 27 2 -1 -12 -43
-32 -93z m900 -218 c-4 -9 -12 -45 -18 -80 l-13 -64 -35 0 c-44 0 -168 -58
-230 -108 -80 -64 -187 -181 -216 -237 -26 -50 -30 -53 -42 -38 -19 27 -6 103
36 197 19 45 47 114 61 155 26 74 27 75 91 110 93 51 199 80 294 80 68 1 77
-1 72 -15z m2626 -139 c16 -14 36 -25 44 -25 8 0 14 -9 14 -20 0 -11 -5 -20
-11 -20 -16 0 -110 -42 -105 -47 2 -3 14 1 27 7 20 11 21 10 17 -13 l-5 -25
40 14 c38 14 57 12 57 -6 0 -5 -9 -12 -20 -15 -26 -8 -26 -36 0 -110 11 -31
18 -61 15 -65 -8 -12 83 8 132 30 55 24 50 24 62 1 9 -15 3 -30 -26 -75 -33
-49 -42 -56 -78 -62 -75 -11 -90 -4 -93 42 l-3 41 -45 -8 c-24 -5 -52 -13 -62
-18 -20 -11 -20 -12 -24 99 -3 71 -4 75 -28 78 -13 2 -42 -1 -63 -8 -58 -17
-69 3 -13 24 31 12 43 22 39 32 -3 9 1 14 13 14 45 1 37 15 -8 17 -35 1 -53 6
-63 20 -24 31 -18 61 15 78 23 12 105 38 139 44 2 1 16 -10 33 -24z m195 -32
c37 -38 37 -27 0 15 l-20 22 29 0 c43 0 54 -12 76 -76 l20 -58 -34 -27 c-43
-36 -57 -39 -102 -24 -56 19 -76 42 -76 86 0 36 38 99 61 99 4 0 25 -17 46
-37z m-657 -114 c0 -7 -8 -21 -17 -32 -14 -15 -2 -11 45 13 76 39 119 37 157
-8 14 -16 44 -39 68 -50 47 -22 45 -18 39 -107 -3 -37 -28 -45 -109 -33 -70
11 -70 11 -115 -20 l-45 -31 -7 60 c-6 59 -22 105 -50 142 -12 15 -17 16 -34
6 -16 -10 -31 -9 -79 4 -33 10 -76 17 -96 17 -26 0 -37 4 -37 15 0 14 16 18
114 30 27 3 68 16 90 29 l40 24 18 -23 c10 -13 18 -29 18 -36z m525 53 c-20
-17 -65 -32 -65 -21 0 5 10 14 23 19 28 11 54 13 42 2z m-211 -47 c8 -22 -71
-57 -98 -42 -17 8 -12 12 35 33 30 13 55 23 55 24 1 0 5 -7 8 -15z m-2588
-142 c-40 -117 -50 -204 -51 -426 l0 -209 -34 39 c-18 21 -67 83 -108 138 -71
95 -75 102 -69 142 16 116 108 262 217 344 35 27 65 47 66 45 2 -1 -8 -34 -21
-73z m2424 -116 c0 -13 6 -31 13 -41 12 -17 16 -17 72 -1 33 10 67 20 75 23 8
3 -2 -10 -22 -29 -21 -20 -42 -47 -47 -62 -8 -20 -15 -24 -33 -19 -13 3 -30
15 -39 26 -9 12 -40 35 -68 51 -28 17 -51 32 -51 35 0 11 56 39 78 40 16 0 22
-6 22 -23z m378 -27 c9 -16 23 -20 62 -20 l51 0 -16 -30 c-17 -32 -44 -43 -96
-38 -29 3 -34 7 -37 32 -4 33 5 76 16 76 4 0 13 -9 20 -20z m-390 -73 c12 -12
22 -32 22 -46 0 -34 -22 -107 -36 -121 -17 -17 -72 -15 -92 3 -9 8 -39 25 -67
37 -27 12 -51 23 -53 25 -3 2 11 22 31 45 19 23 45 61 58 85 l23 43 46 -25
c25 -15 55 -35 68 -46z m-163 -146 c67 -30 73 -45 45 -98 -37 -71 -111 -97
-158 -58 -2 2 6 21 17 44 12 23 24 61 28 86 6 50 11 52 68 26z"/>
<path d="M2533 4594 c37 -20 89 -55 115 -77 l47 -41 -37 40 c-40 42 -126 98
-168 109 -14 3 5 -11 43 -31z"/>
<path d="M2264 4604 c5 -10 11 -63 15 -117 4 -54 13 -103 19 -109 9 -9 12 -6
12 13 1 13 7 38 14 54 l13 30 7 -44 c5 -33 10 -41 18 -33 9 9 16 8 28 -3 20
-18 50 -10 50 13 0 13 3 12 16 -4 14 -18 15 -18 8 6 -3 14 -16 44 -29 67 l-23
42 57 -29 c32 -16 73 -41 92 -57 l34 -28 -22 31 c-54 75 -189 162 -284 181
-29 5 -32 4 -25 -13z"/>
<path d="M3090 4607 c-38 -18 -113 -72 -135 -98 -11 -13 1 -6 26 14 26 21 71
51 100 67 53 29 58 40 9 17z"/>
<path d="M3285 4601 c-105 -38 -207 -108 -237 -164 -8 -17 -5 -16 23 6 19 13
57 36 86 51 l51 25 -30 -60 c-17 -33 -28 -63 -24 -66 3 -3 8 2 12 11 3 9 10
16 15 16 4 0 6 -6 3 -14 -8 -20 27 -26 49 -7 15 13 20 13 27 1 6 -10 10 -3 15
23 9 45 23 39 31 -14 11 -66 27 -30 35 78 4 54 10 106 14 116 9 21 -4 21 -70
-2z"/>
<path d="M2915 4470 c-16 -7 -17 -9 -3 -9 9 -1 20 4 23 9 7 11 7 11 -20 0z"/>
<path d="M2690 4466 c0 -2 7 -6 15 -10 8 -3 15 -1 15 4 0 6 -7 10 -15 10 -8 0
-15 -2 -15 -4z"/>
<path d="M2911 4430 c0 -8 4 -22 9 -30 12 -18 12 -2 0 25 -6 13 -9 15 -9 5z"/>
<path d="M2676 4368 l-18 -33 21 25 c18 22 26 40 18 40 -1 0 -11 -15 -21 -32z"/>
<path d="M2940 4360 c6 -11 13 -20 16 -20 2 0 0 9 -6 20 -6 11 -13 20 -16 20
-2 0 0 -9 6 -20z"/>
<path d="M2230 4361 c0 -6 4 -13 10 -16 6 -3 7 1 4 9 -7 18 -14 21 -14 7z"/>
<path d="M2390 4325 c-63 -8 -117 -12 -121 -9 -4 2 -10 0 -14 -6 -8 -13 10
-12 195 9 85 10 133 19 105 19 -27 0 -102 -6 -165 -13z"/>
<path d="M3053 4333 c15 -2 37 -2 50 0 12 2 0 4 -28 4 -27 0 -38 -2 -22 -4z"/>
<path d="M3153 4323 c15 -2 37 -2 50 0 12 2 0 4 -28 4 -27 0 -38 -2 -22 -4z"/>
<path d="M3230 4317 c10 -9 130 -18 130 -10 0 4 -30 9 -67 11 -37 2 -65 1 -63
-1z"/>
<path d="M3187 4205 c-4 -8 -2 -17 3 -20 6 -4 10 3 10 14 0 25 -6 27 -13 6z"/>
<path d="M2306 4151 c-15 -27 -14 -29 22 -62 l37 -34 -32 35 c-27 29 -30 38
-21 55 6 11 16 23 22 27 8 5 7 8 -1 8 -7 0 -19 -13 -27 -29z"/>
<path d="M3265 4157 c18 -28 18 -28 -9 -55 -14 -16 -26 -32 -26 -37 0 -5 14 5
30 24 32 35 33 58 3 83 -14 11 -13 8 2 -15z"/>
<path d="M2495 4117 c44 -13 90 -27 103 -31 15 -5 22 -3 22 5 0 7 -3 10 -6 6
-3 -3 -29 3 -58 13 -29 10 -72 20 -97 24 -30 4 -18 -2 36 -17z"/>
<path d="M3138 4133 c7 -3 16 -2 19 1 4 3 -2 6 -13 5 -11 0 -14 -3 -6 -6z"/>
<path d="M3051 4119 c-18 -6 -31 -12 -29 -14 2 -2 26 2 53 10 28 7 41 13 30
13 -11 0 -35 -4 -54 -9z"/>
<path d="M2463 4067 c27 -11 37 -27 16 -27 -5 0 -27 -11 -47 -25 -20 -14 -31
-25 -25 -25 6 0 13 -10 15 -22 3 -21 5 -19 26 15 28 45 38 46 45 8 8 -37 39
-48 72 -27 22 14 25 14 25 2 0 -35 -69 -47 -110 -20 l-25 16 24 -21 c23 -21
75 -28 98 -13 7 4 16 19 22 32 l10 25 0 -28 c1 -37 21 -25 21 13 0 19 -9 35
-27 49 l-28 21 48 -20 c26 -11 46 -16 43 -11 -10 16 -130 58 -181 64 -43 4
-46 4 -22 -6z"/>
<path d="M2398 4063 c7 -3 16 -2 19 1 4 3 -2 6 -13 5 -11 0 -14 -3 -6 -6z"/>
<path d="M2996 4045 c-32 -13 -64 -29 -70 -36 -6 -6 3 -4 21 5 42 21 53 20 25
-3 -19 -17 -21 -25 -14 -58 6 -27 13 -38 27 -40 16 -1 17 -1 3 3 -12 4 -18 16
-18 37 0 23 3 28 9 18 7 -11 10 -9 13 9 4 33 24 36 32 5 7 -29 45 -35 66 -10
16 19 30 19 30 1 0 -20 -26 -38 -68 -47 l-37 -7 33 -1 c25 -1 41 7 62 28 16
16 32 26 35 23 12 -13 3 -32 -22 -46 -16 -8 -23 -15 -17 -16 19 0 53 33 56 55
2 11 7 23 11 26 9 7 -53 49 -72 49 -15 0 -14 17 2 23 6 3 -1 6 -18 6 -16 0
-57 -10 -89 -24z"/>
<path d="M2691 4019 c-7 -12 -10 -23 -8 -26 3 -3 11 5 17 17 6 12 10 23 8 25
-2 2 -10 -5 -17 -16z"/>
<path d="M2508 3903 c12 -2 32 -2 45 0 12 2 2 4 -23 4 -25 0 -35 -2 -22 -4z"/>
<path d="M3028 3903 c12 -2 32 -2 45 0 12 2 2 4 -23 4 -25 0 -35 -2 -22 -4z"/>
<path d="M2450 3734 c14 -3 40 -9 59 -14 25 -7 31 -6 24 1 -6 6 -33 13 -60 15
-26 1 -37 1 -23 -2z"/>
<path d="M2717 3723 c15 -5 -22 -46 -49 -56 -20 -7 -24 11 -8 31 5 7 3 6 -6
-2 -25 -22 -10 -44 43 -68 27 -11 51 -26 55 -32 6 -8 8 -7 8 1 0 7 19 21 43
31 82 36 87 72 13 91 -43 11 -124 15 -99 4z m113 -67 c0 -3 -4 -8 -10 -11 -5
-3 -10 -1 -10 4 0 6 5 11 10 11 6 0 10 -2 10 -4z"/>
<path d="M2370 3695 l-24 -26 23 9 c14 5 25 16 27 25 3 22 2 22 -26 -8z"/>
<path d="M3025 3680 c-3 -6 1 -7 9 -4 18 7 21 14 7 14 -6 0 -13 -4 -16 -10z"/>
<path d="M2482 3664 c-12 -8 -22 -19 -22 -24 0 -12 49 12 55 28 6 16 -6 15
-33 -4z"/>
<path d="M3142 3650 c0 -14 2 -19 5 -12 2 6 2 18 0 25 -3 6 -5 1 -5 -13z"/>
<path d="M3025 3640 c-3 -6 1 -7 9 -4 18 7 21 14 7 14 -6 0 -13 -4 -16 -10z"/>
<path d="M2470 3615 c-14 -17 -6 -48 17 -67 13 -10 13 -7 -2 15 -15 24 -16 33
-7 48 14 22 10 25 -8 4z"/>
<path d="M3023 3598 c1 -15 6 -23 11 -18 4 4 4 16 -2 26 -9 16 -10 14 -9 -8z"/>
<path d="M2990 3560 c-9 -5 -85 -11 -170 -14 -212 -8 -319 -17 -295 -25 11 -4
83 -4 160 0 77 4 172 7 211 8 56 1 77 5 95 21 25 20 24 26 -1 10z"/>
<path d="M3020 3540 c0 -11 -9 -25 -20 -32 -11 -7 -20 -21 -20 -30 0 -9 -10
-27 -22 -39 l-23 -23 25 16 c14 8 27 24 29 34 2 11 12 27 22 37 17 16 27 57
14 57 -3 0 -5 -9 -5 -20z"/>
<path d="M2499 3481 c24 -47 58 -81 80 -81 10 1 5 7 -11 16 -16 8 -37 32 -48
54 -11 21 -25 42 -31 45 -6 4 -1 -11 10 -34z"/>
<path d="M2608 3393 c6 -2 18 -2 25 0 6 3 1 5 -13 5 -14 0 -19 -2 -12 -5z"/>
<path d="M4168 2603 c7 -3 16 -2 19 1 4 3 -2 6 -13 5 -11 0 -14 -3 -6 -6z"/>
<path d="M3912 2535 c0 -16 2 -22 5 -12 2 9 2 23 0 30 -3 6 -5 -1 -5 -18z"/>
<path d="M2074 4595 c-285 -83 -562 -245 -782 -457 l-73 -70 82 -40 c58 -29
103 -60 159 -114 134 -128 167 -182 278 -452 l26 -63 33 38 c18 21 60 80 94
130 54 82 60 95 48 109 -18 22 -18 136 0 187 7 20 37 71 66 112 63 87 73 82
-115 60 -142 -17 -160 -14 -160 30 0 43 187 241 360 383 81 66 85 71 83 106
-4 65 -8 67 -99 41z"/>
<path d="M3753 4276 c146 -140 144 -166 -8 -163 -50 0 -134 -3 -187 -7 l-98
-8 0 -31 c0 -19 23 -79 57 -145 53 -105 57 -119 61 -197 4 -77 2 -90 -23 -140
-24 -50 -108 -134 -147 -147 -8 -3 -2 -18 19 -44 68 -86 89 -144 63 -170 -21
-21 35 -159 114 -279 42 -63 78 -115 80 -115 2 0 23 7 46 15 62 22 256 19 430
-6 80 -11 191 -22 248 -24 76 -2 109 -7 129 -20 l26 -18 -6 108 c-28 456 -249
925 -591 1253 -84 81 -292 242 -311 242 -5 -1 38 -47 98 -104z"/>
<path d="M894 3313 c3 -15 9 -65 13 -109 5 -76 4 -83 -15 -93 -27 -15 -44 -7
-67 31 -13 22 -20 27 -23 18 -2 -8 -26 -65 -52 -125 -44 -100 -49 -121 -56
-210 -13 -198 30 -499 101 -706 20 -57 63 -159 95 -226 l59 -123 64 0 c52 0
71 -5 101 -25 35 -24 85 -33 99 -18 4 3 -13 26 -38 51 -25 24 -45 51 -45 59 0
8 -9 28 -21 44 -35 50 -79 157 -100 247 -39 160 -17 315 78 542 51 122 87 278
80 341 -8 62 -55 155 -106 206 -23 22 -71 60 -107 82 l-66 42 6 -28z"/>
<path d="M4547 2583 c-4 -3 -7 -13 -7 -22 1 -13 3 -13 11 2 11 19 8 33 -4 20z"/>
<path d="M4507 2327 c-4 -15 -12 -27 -17 -27 -5 0 -21 -17 -34 -39 -35 -55
-123 -80 -178 -50 -46 24 -71 -1 -248 -249 l-31 -44 22 -66 c12 -37 24 -70 28
-74 3 -4 62 -8 130 -9 l124 -2 43 84 c80 156 184 454 171 492 -2 6 -7 0 -10
-16z"/>
<path d="M475 1718 c-40 -24 -145 -143 -150 -173 -3 -16 -5 -185 -3 -374 l3
-344 80 -73 80 -74 172 0 c95 0 173 -2 173 -5 0 -3 -9 -18 -21 -34 -21 -28
-21 -31 -11 -286 1 -5 -2 -40 -4 -77 -9 -111 -15 -108 198 -108 172 0 183 1
205 21 l22 22 18 -22 c16 -20 26 -22 98 -19 l80 3 10 33 c8 29 13 33 40 30 25
-2 31 -8 35 -33 l5 -30 88 -3 c82 -3 89 -1 94 18 7 25 15 25 38 0 17 -18 31
-20 169 -20 l151 1 35 29 34 30 31 -30 31 -30 200 0 c188 0 202 1 219 20 23
25 31 25 38 0 5 -19 14 -20 166 -20 l161 0 39 35 c21 19 47 35 58 35 10 0 34
-16 53 -35 l34 -35 150 0 c139 0 151 1 173 21 l22 22 18 -22 c18 -21 23 -22
233 -19 l215 3 10 33 c8 28 13 32 45 32 32 0 37 -4 45 -33 l10 -32 78 -3 c87
-3 107 5 107 45 0 15 10 33 25 45 24 19 25 23 25 139 0 118 0 119 23 119 43 0
56 20 59 90 l3 65 168 5 168 5 75 76 74 76 0 424 c0 233 -4 429 -8 435 -17 26
-56 34 -166 34 -125 0 -161 -8 -171 -39 -6 -19 -14 -21 -107 -21 -98 0 -100 1
-128 30 l-28 30 -120 0 c-131 0 -167 -8 -177 -39 -6 -19 -14 -21 -106 -21 -92
0 -103 2 -133 25 -43 32 -86 32 -116 0 -22 -23 -30 -25 -113 -25 -86 0 -90 1
-117 30 l-28 30 -132 0 -132 0 -28 -30 c-28 -30 -28 -30 -140 -30 -112 0 -112
0 -140 30 l-28 30 -137 0 -137 0 -28 -30 -28 -30 -132 0 -132 0 -28 30 -28 30
-412 0 -412 0 -28 -30 c-23 -25 -36 -30 -73 -30 -28 0 -49 6 -58 16 -34 41
-57 44 -346 44 -190 -1 -284 -4 -298 -12z m631 -110 l64 -61 0 -348 0 -347
-62 -56 -63 -56 -266 0 -266 0 -61 56 -62 56 0 352 0 353 59 56 60 57 266 0
267 0 64 -62z m974 -48 l0 -110 -135 0 -135 0 0 -355 0 -355 -115 0 -115 0 0
355 0 355 -140 0 -140 0 0 110 0 110 390 0 390 0 0 -110z m701 -35 c26 -77 88
-258 138 -403 75 -217 91 -274 91 -323 l0 -59 -225 0 c-124 0 -225 3 -225 8 0
4 13 52 29 107 l28 100 49 5 50 5 -45 152 c-25 83 -48 154 -51 157 -3 3 -44
-116 -90 -264 l-84 -270 -113 0 -113 0 0 53 c0 41 29 139 135 452 75 220 137
406 140 413 3 9 33 12 121 10 l117 -3 48 -140z m551 -17 l3 -163 120 115 c66
63 141 134 167 159 l46 44 90 -79 c50 -44 91 -81 91 -84 0 -3 -69 -70 -154
-150 l-155 -145 157 -151 156 -151 -89 -76 c-49 -42 -93 -76 -99 -76 -5 0 -82
69 -170 154 l-160 154 -3 -160 -2 -159 -110 0 -110 0 0 465 0 465 110 0 110 0
2 -162z m910 -195 l3 -358 167 -3 168 -2 2 357 3 358 110 0 110 0 3 -400 2
-399 -62 -63 -62 -63 -267 0 -266 0 -67 61 -66 61 0 397 c0 219 3 401 7 404 3
4 53 7 110 7 l103 0 2 -357z m-2862 -723 l0 -90 80 0 80 0 0 90 0 90 55 0 55
0 0 -236 0 -235 -52 3 -53 3 -3 88 -3 87 -79 0 -80 0 0 -90 0 -90 -49 0 -49 0
-7 224 c-4 123 -4 229 -1 235 4 6 29 11 57 11 l49 0 0 -90z m-170 30 l0 -50
-130 0 -130 0 0 -37 0 -38 130 3 130 4 0 -113 c0 -109 -1 -114 -27 -141 l-27
-28 -158 0 -158 0 0 50 0 50 135 0 135 0 0 35 0 35 -135 0 -135 0 0 112 c0
108 1 113 27 140 l27 28 158 0 158 0 0 -50z m843 22 l27 -28 0 -176 0 -176
-34 -26 c-33 -25 -41 -26 -152 -26 l-118 0 -33 32 -33 32 0 170 0 170 27 28
c27 28 27 28 158 28 131 0 131 0 158 -28z m197 -147 l0 -175 35 0 35 0 0 175
0 175 55 0 55 0 0 -175 0 -175 35 0 35 0 0 175 0 175 56 0 56 0 -4 -199 -3
-200 -29 -30 -30 -31 -171 0 -171 0 -26 27 c-25 28 -26 31 -33 231 l-7 202 56
0 56 0 0 -175z m742 128 c44 -43 48 -51 48 -95 0 -43 -3 -49 -30 -63 -16 -9
-30 -18 -30 -20 0 -2 14 -11 30 -20 27 -14 30 -20 30 -62 0 -43 -4 -52 -47
-95 l-47 -48 -138 0 -138 0 0 225 0 225 137 0 137 0 48 -47z m461 19 l27 -28
0 -169 0 -169 -27 -28 c-27 -28 -27 -28 -158 -28 -131 0 -131 0 -158 28 l-27
28 0 169 0 169 27 28 c27 28 27 28 158 28 131 0 131 0 158 -28z m401 -176 c36
-112 66 -216 66 -230 l0 -26 -105 0 c-67 0 -105 4 -105 11 0 5 5 30 11 55 10
37 15 44 35 44 27 0 27 1 -6 107 l-18 57 -42 -137 -43 -137 -49 0 -48 0 0 36
c0 20 28 123 62 230 l62 194 57 0 58 0 65 -204z m486 154 l0 -50 -64 0 c-49 0
-65 -4 -70 -16 -3 -9 -6 -90 -6 -180 l0 -164 -50 0 -50 0 0 180 0 180 -65 0
c-64 0 -65 0 -65 28 0 15 -3 37 -6 50 l-6 22 191 0 191 0 0 -50z"/>
<path d="M610 1200 l0 -250 170 0 170 0 0 250 0 250 -170 0 -170 0 0 -250z"/>
<path d="M1820 445 l0 -125 80 0 80 0 0 125 0 125 -80 0 -80 0 0 -125z"/>
<path d="M2780 530 l0 -41 73 3 72 3 3 38 3 37 -75 0 -76 0 0 -40z"/>
<path d="M2776 368 c-12 -47 -10 -48 74 -48 l80 0 0 35 0 35 -74 0 c-68 0 -74
-2 -80 -22z"/>
<path d="M3210 445 l0 -125 86 0 87 0 -7 61 c-3 34 -6 91 -6 125 l0 64 -80 0
-80 0 0 -125z"/>
</g>
</svg>
